<svg width="50" height="32" viewBox="0 0 50 32" fill="none" xmlns="http://www.w3.org/2000/svg">
<g clip-path="url(#clip0)">
<path d="M28.3255 29.6043C41.5377 26.1969 50.6419 17.2222 48.6602 9.55876C46.6785 1.89533 34.3614 -1.55485 21.1491 1.85256C7.93693 5.25997 -1.1672 14.2347 0.814506 21.8981C2.79621 29.5615 15.1133 33.0117 28.3255 29.6043Z" fill="white"/>
<path d="M48.6593 9.5615C46.6779 1.89818 34.3616 -1.5526 21.1526 1.85344C13.8419 3.73935 7.79012 7.32883 4.17677 11.4586C4.13928 11.3232 4.08311 11.1937 4.00988 11.0738C3.68842 10.5559 3.03318 10.2561 2.27489 10.274C2.18714 10.2761 2.10367 10.3123 2.04234 10.375C1.98101 10.4377 1.94668 10.5219 1.94671 10.6096V14.6308C0.651906 17.0436 0.206117 19.5335 0.817676 21.9015C2.79908 29.5649 15.1154 33.0156 28.3277 29.6096C35.2285 27.83 41.007 24.5313 44.6718 20.6946C46.1156 20.5537 47.4608 19.6599 47.4608 18.0704C47.463 17.7862 47.4109 17.5041 47.3074 17.2393C48.7724 14.698 49.3056 12.0604 48.6593 9.5615Z" fill="#D6006D"/>
<path d="M22.9341 29.7378C34.079 28.4106 42.4993 22.1894 41.7415 15.8423C40.9836 9.49525 31.3345 5.42579 20.1896 6.75296C9.04473 8.08013 0.624374 14.3013 1.38223 20.6484C2.1401 26.9955 11.7892 31.065 22.9341 29.7378Z" fill="url(#paint0_linear)"/>
<g style="mix-blend-mode:multiply" opacity="0.5">
<path style="mix-blend-mode:multiply" opacity="0.5" d="M48.6593 9.5615C46.6779 1.89818 34.3616 -1.5526 21.1526 1.85344C13.8419 3.73935 7.79012 7.32883 4.17677 11.4586C4.13928 11.3232 4.08311 11.1937 4.00988 11.0738C3.68842 10.5559 3.03318 10.2561 2.27489 10.274C2.18714 10.2761 2.10367 10.3123 2.04234 10.375C1.98101 10.4377 1.94668 10.5219 1.94671 10.6096V14.6308C0.651906 17.0436 0.206117 19.5335 0.817676 21.9015C2.79908 29.5649 15.1154 33.0156 28.3277 29.6096C35.2285 27.83 41.007 24.5313 44.6718 20.6946C46.1156 20.5537 47.4608 19.6599 47.4608 18.0704C47.463 17.7862 47.4109 17.5041 47.3074 17.2393C48.7724 14.698 49.3056 12.0604 48.6593 9.5615Z" fill="url(#paint1_linear)"/>
</g>
<path d="M47.1675 13.5401C47.1645 13.4776 47.1741 13.4151 47.1959 13.3565C47.2178 13.2978 47.2513 13.2442 47.2945 13.1989C47.3377 13.1535 47.3897 13.1175 47.4473 13.0928C47.5049 13.0681 47.5669 13.0554 47.6296 13.0554C47.6922 13.0554 47.7542 13.0681 47.8118 13.0928C47.8694 13.1175 47.9214 13.1535 47.9646 13.1989C48.0078 13.2442 48.0414 13.2978 48.0632 13.3565C48.085 13.4151 48.0947 13.4776 48.0916 13.5401C48.0907 13.6628 48.0419 13.7803 47.9554 13.8674C47.869 13.9546 47.7518 14.0045 47.629 14.0066C47.5679 14.0066 47.5075 13.9945 47.4511 13.9709C47.3947 13.9474 47.3436 13.913 47.3007 13.8696C47.2578 13.8262 47.2239 13.7748 47.201 13.7182C47.1782 13.6616 47.1668 13.6011 47.1675 13.5401ZM47.9897 13.5401C47.9868 13.4696 47.9633 13.4014 47.9219 13.3441C47.8806 13.2868 47.8233 13.2429 47.7572 13.2179C47.6911 13.1929 47.6191 13.1878 47.5501 13.2033C47.4812 13.2188 47.4183 13.2542 47.3693 13.3051C47.3203 13.356 47.2874 13.4201 47.2746 13.4896C47.2618 13.559 47.2697 13.6307 47.2974 13.6956C47.3251 13.7606 47.3713 13.816 47.4302 13.855C47.4892 13.894 47.5583 13.9148 47.629 13.9148C47.726 13.9111 47.8177 13.8699 47.885 13.8001C47.9522 13.7302 47.9897 13.637 47.9897 13.5401ZM47.6761 13.7168L47.592 13.5793H47.564V13.794H47.4576V13.2806H47.6604C47.6816 13.2785 47.7029 13.281 47.7231 13.2878C47.7433 13.2946 47.7617 13.3056 47.7773 13.3201C47.7929 13.3346 47.8052 13.3523 47.8134 13.3719C47.8216 13.3915 47.8256 13.4126 47.825 13.4338C47.8265 13.4693 47.8149 13.5041 47.7924 13.5315C47.7699 13.559 47.738 13.5771 47.7029 13.5826L47.7825 13.6945C47.8032 13.7291 47.8276 13.7613 47.8553 13.7907C47.8309 13.7953 47.8061 13.7971 47.7813 13.7963C47.7421 13.8007 47.7108 13.7784 47.6761 13.7168ZM47.6469 13.4931C47.7029 13.4931 47.7242 13.4629 47.7242 13.4227C47.725 13.4126 47.7235 13.4024 47.7198 13.393C47.7161 13.3836 47.7104 13.3751 47.7029 13.3682C47.6955 13.3613 47.6866 13.3562 47.6769 13.3532C47.6672 13.3503 47.6569 13.3495 47.6469 13.3511H47.5596V13.4931H47.6469Z" fill="white"/>
<path d="M2.2793 10.6095C2.93567 10.595 3.46434 10.8332 3.72196 11.2505C3.92133 11.5793 3.92133 11.9216 3.92133 12.3634V20.1655H2.2793V10.6095Z" fill="white"/>
<path d="M5.80761 13.0331C6.53566 13.0197 7.1517 13.3038 7.29283 13.9458H7.30739C7.77894 13.1763 8.57867 12.834 9.52065 12.834C10.4066 12.834 11.0495 13.1047 11.4494 13.5465C11.8493 13.9883 12.0094 14.6024 12.0094 15.2445V20.1662H10.4201V15.5577C10.4201 15.1013 10.3484 14.759 10.1199 14.5309C9.89139 14.3027 9.54865 14.1886 9.14878 14.1886C8.14856 14.1886 7.39139 14.9872 7.39139 16.2993V20.1651H5.80761V13.0331Z" fill="white"/>
<path d="M14.5173 19.5948C14.346 19.2805 14.3034 18.9527 14.3034 18.5254V14.5601H12.7756C12.7756 13.5467 13.3043 13.191 14.3034 13.191V11.1932C14.9463 11.1798 15.4459 11.3934 15.6744 11.8073C15.8457 12.1205 15.8894 12.4494 15.8894 12.8767V13.191H17.7174C17.7174 14.2033 17.2033 14.5601 16.203 14.5601H15.8883V20.2044C15.2465 20.2223 14.747 20.0075 14.5173 19.5948Z" fill="white"/>
<path d="M18.5161 10.6373C18.5143 10.3631 18.6216 10.0994 18.8144 9.90413C19.0072 9.70886 19.2698 9.59802 19.5443 9.59595C19.8205 9.59742 20.0848 9.70761 20.2801 9.90259C20.4753 10.0976 20.5857 10.3616 20.5871 10.6373C20.5851 10.9116 20.4741 11.1737 20.2785 11.3663C20.083 11.5588 19.8189 11.666 19.5443 11.6642C19.4092 11.6648 19.2752 11.6386 19.1502 11.5872C19.0251 11.5358 18.9116 11.4602 18.816 11.3647C18.7204 11.2693 18.6446 11.1558 18.5932 11.031C18.5417 10.9061 18.5155 10.7723 18.5161 10.6373ZM18.7592 13.0333C19.4021 13.0199 19.9016 13.2335 20.1301 13.6474C20.3015 13.9606 20.3441 14.2883 20.3441 14.7168V20.1653H18.7592V13.0333Z" fill="white"/>
<path d="M21.9434 13.0331C22.6714 13.0197 23.2875 13.3038 23.4286 13.9458H23.4431C23.9147 13.1763 24.6999 12.834 25.643 12.834C26.4998 12.834 27.0285 13.1047 27.4418 13.5465C27.5769 13.6896 27.6881 13.8536 27.7711 14.032H27.7845C28.2561 13.2613 29.1701 12.834 30.1132 12.834C30.97 12.834 31.4987 13.1047 31.912 13.5465C32.3253 13.9883 32.472 14.6024 32.472 15.2445V20.1662H30.8838V15.5577C30.8838 15.1013 30.8132 14.759 30.5847 14.5309C30.4631 14.4155 30.3195 14.3258 30.1625 14.267C30.0055 14.2082 29.8383 14.1815 29.6707 14.1886C28.6705 14.1886 27.9996 14.9872 27.9996 16.2993V20.1651H26.4169V15.5577C26.4169 15.1013 26.3464 14.759 26.1168 14.5309C25.9953 14.4154 25.8517 14.3256 25.6947 14.2668C25.5376 14.2079 25.3703 14.1814 25.2028 14.1886C24.2037 14.1886 23.5327 14.9872 23.5327 16.2993V20.1651H21.9434V13.0331Z" fill="white"/>
<path d="M34.4536 19.6653C34.0392 19.2234 33.8935 18.6105 33.8935 17.9684V13.0333C34.5365 13.0199 35.0215 13.248 35.2791 13.6474C35.4784 13.9606 35.4784 14.2883 35.4784 14.7167V17.6552C35.4784 18.1116 35.5501 18.4539 35.7786 18.682C36.0071 18.9102 36.3499 19.0243 36.7497 19.0243C37.7499 19.0243 38.506 18.2257 38.506 16.9136V14.7167C38.506 14.2883 38.506 13.9606 38.7065 13.6474C38.9641 13.248 39.4491 13.0199 40.092 13.0333V20.1653H38.581L38.553 19.3096H38.5385C38.2942 19.6496 37.9703 19.9248 37.5951 20.1112C37.2198 20.2976 36.8047 20.3895 36.3857 20.3789C35.4964 20.3789 34.868 20.1082 34.4536 19.6653Z" fill="white"/>
<path d="M41.3656 17.7829H42.9505C42.9942 18.425 43.2933 19.1386 44.3652 19.1386C45.0932 19.1386 45.5077 18.7963 45.5077 18.2963C45.509 18.182 45.4824 18.069 45.43 17.9672C45.3777 17.8655 45.3013 17.778 45.2075 17.7124C44.9835 17.5122 44.6082 17.3702 44.1512 17.227C43.3078 16.9563 42.4801 16.7281 42.0365 16.2851C41.6938 15.9429 41.509 15.5022 41.509 14.916C41.509 13.7617 42.6369 12.8198 44.0852 12.8198C45.8414 12.8198 46.7845 13.661 46.8125 15.2013H45.3072C45.2792 14.5883 45.0652 14.0178 44.1512 14.0178C43.5083 14.0178 43.1219 14.3746 43.1365 14.774C43.151 15.3724 43.8219 15.5301 44.4805 15.7583C45.2512 16.0145 45.8515 16.2147 46.2659 16.4999C46.8372 16.8847 47.1228 17.3948 47.1228 18.0659C47.1228 19.5782 45.6947 20.3769 44.2666 20.3769C42.3793 20.3791 41.351 19.3377 41.3656 17.7829Z" fill="white"/>
</g>
<defs>
<linearGradient id="paint0_linear" x1="4.53205" y1="34.0526" x2="15.68" y2="-5.35967" gradientUnits="userSpaceOnUse">
<stop stop-color="white"/>
<stop offset="0.35" stop-color="#D6006D" stop-opacity="0.5"/>
<stop offset="0.76" stop-color="#D6006D" stop-opacity="0"/>
</linearGradient>
<linearGradient id="paint1_linear" x1="19.8813" y1="32.4541" x2="28.882" y2="-1.18392" gradientUnits="userSpaceOnUse">
<stop offset="0.5" stop-color="white"/>
<stop offset="0.55" stop-color="#F6F6F6"/>
<stop offset="0.62" stop-color="#DEDEDE"/>
<stop offset="0.72" stop-color="#B7B6B6"/>
<stop offset="0.83" stop-color="#817F7F"/>
<stop offset="0.96" stop-color="#3D393A"/>
<stop offset="1" stop-color="#231F20"/>
</linearGradient>
<clipPath id="clip0">
<rect width="50" height="32" fill="white"/>
</clipPath>
</defs>
</svg>
